<svg xmlns="http://www.w3.org/2000/svg" viewBox="0 0 522.74 129.9" role="img" aria-labelledby="title desc">
    <title>Bideex Marketplace Logo, Bideex Marketplace - Buy, Sell, and Rent Locally &amp; Internationally</title>
    <desc>Bideex logo representing a global marketplace to buy, sell, and rent items.</desc>
    <style>
        .cls-1 { fill: #ff435b; }
    </style>
    <path d="M0,127.19V5.38H19.15q16.67,0,24.38,2.15A32.57,32.57,0,0,1,60.94,18.3a28.35,28.35,0,0,1,6.47,18.55,27,27,0,0,1-2.94,12.63,32.2,32.2,0,0,1-9.56,10.64q11.1,5.22,16.23,13a33,33,0,0,1,5.13,18.51,34.87,34.87,0,0,1-19,31.37q-8.37,4.19-23.13,4.18H0Zm23.19-99.7V53.16h5.07q8.47,0,12.59-3.56A12.15,12.15,0,0,0,45,39.91a11.35,11.35,0,0,0-3.91-9.07q-3.92-3.36-11.88-3.35h-6Zm0,46.37v31.22H29q14.45,0,19.47-3.64t5-10.6a14.86,14.86,0,0,0-5.9-12.42q-5.9-4.56-19.6-4.55H23.19Z" />
    <path d="M95.63,0a13.87,13.87,0,0,1,10.2,4.31,14.32,14.32,0,0,1,4.25,10.43,14,14,0,0,1-4.21,10.31A13.69,13.69,0,0,1,95.8,29.32,14,14,0,0,1,85.52,25a14.55,14.55,0,0,1-4.25-10.56A13.63,13.63,0,0,1,85.48,4.23,13.78,13.78,0,0,1,95.64,0ZM84.33,37.1h22.61v90.09H84.33Z" />
    <path d="M185.72,2.32h22.61V127.19H185.72v-9.52a44.39,44.39,0,0,1-13.28,9.07A37,37,0,0,1,158,129.51q-17.44,0-30.19-13.54T115.08,82.31c0-13.41,4.11-25.31,12.32-34.2s18.2-13.33,29.94-13.33a38.26,38.26,0,0,1,15.22,3.06A41.48,41.48,0,0,1,185.71,47V2.32ZM162,55.65a22.86,22.86,0,0,0-17.41,7.41q-6.93,7.41-6.93,19c0,7.72,2.35,14.19,7.06,19.21a22.9,22.9,0,0,0,17.37,7.54,23.65,23.65,0,0,0,17.66-7.41q7-7.41,7-19.42c0-8-2.34-14.19-7-19.05A23.56,23.56,0,0,0,162,55.64Z" />
    <path d="M307.81,88.69H235.19A24.22,24.22,0,0,0,243.6,104q6.83,5.67,17.43,5.67a30.13,30.13,0,0,0,21.78-8.86l19.05,8.94a45,45,0,0,1-17.06,15q-9.93,4.84-23.6,4.84-21.19,0-34.53-13.37t-13.33-33.5c0-13.42,4.43-25.16,13.29-34.24s20-13.62,33.33-13.62q21.29,0,34.61,13.62t13.33,36l-.08,4.31ZM285.2,70.89a22.72,22.72,0,0,0-8.83-12.26,25.61,25.61,0,0,0-15.3-4.72,27.12,27.12,0,0,0-16.59,5.3q-4.48,3.32-8.29,11.68h49Z" />
    <path d="M422.38,88.9H349.76a24.15,24.15,0,0,0,8.41,15.28q6.82,5.67,17.43,5.67A30.12,30.12,0,0,0,397.38,101l19.05,8.94a44.9,44.9,0,0,1-17.06,15q-9.93,4.85-23.6,4.84-21.19,0-34.53-13.37t-13.33-33.5c0-13.42,4.43-25.16,13.29-34.24S361.17,35,374.53,35q21.29,0,34.61,13.62t13.33,36l-.08,4.31ZM399.77,71.1a22.72,22.72,0,0,0-8.83-12.26,25.61,25.61,0,0,0-15.3-4.72,27.12,27.12,0,0,0-16.59,5.3q-4.49,3.31-8.29,11.68h49Z" />
    <polygon points="522.74 34.61 519.65 55.09 495.67 79.07 478.28 61.69 502.26 37.71 522.74 34.61" />
    <polygon class="cls-1" points="519.56 126.72 499.07 123.62 433.74 58.28 430.64 37.79 451.12 40.89 516.47 106.24 519.56 126.72" />
    <polygon points="471.92 102.83 447.94 126.8 427.46 129.9 430.55 109.41 454.53 85.44 471.92 102.83" />
</svg>
