<svg xmlns="http://www.w3.org/2000/svg" viewBox="0 0 150.25 150.25"><defs><style>.cls-1{fill:#fff;}.cls-2{fill:#00a99d;}.cls-3{opacity:0.4;}.cls-4{opacity:0.5;}</style></defs><g id="Layer_2" data-name="Layer 2"><g id="Layer_1-2" data-name="Layer 1"><path class="cls-1" d="M128.25,128.25a75.13,75.13,0,1,1,0-106.25A75.15,75.15,0,0,1,128.25,128.25Z"/><path class="cls-2" d="M133.13,75.12a58,58,0,1,1-58-58A58,58,0,0,1,133.13,75.12Z"/><path class="cls-1" d="M71.22,73.4c0,1,.85,2.21,2.73,3.56V70.87a3.57,3.57,0,0,0-1.87.83A2.19,2.19,0,0,0,71.22,73.4Z"/><path class="cls-1" d="M75.69,84.7v6.89A4.1,4.1,0,0,0,78,90.71a2.57,2.57,0,0,0,1-2,3,3,0,0,0-.79-1.92A12.16,12.16,0,0,0,75.69,84.7Z"/><path class="cls-1" d="M93.84,81.43c-.49-3.14-1-5.37-1-5.37v-.17c0-7.76-6.32-14.25-14.36-17.8H68.43c-8,3.55-14.38,10-14.36,17.8V76l0,.08a93.32,93.32,0,0,0-1.92,16.16c0,3.59.56,6.71,1.71,7.8,3.23,3.28,11.44,5.14,19.62,5.12s16.4-1.84,19.62-5.12c1.16-1.09,1.75-4.21,1.72-7.8A75.82,75.82,0,0,0,93.84,81.43Zm-13,10.33a8.2,8.2,0,0,1-5.16,1.76V96H74V93.52a9.5,9.5,0,0,1-6.57-2.74l-.13-.12.94-5.15h1.29l0,.31c.43,3.58,1.86,5.38,4.44,5.75V83.51a27.63,27.63,0,0,1-5.09-4.33,6,6,0,0,1-1.42-3.85,5.82,5.82,0,0,1,2-4.44A7.25,7.25,0,0,1,74,69V67.2h1.74v1.74a9.23,9.23,0,0,1,5.83,2.34l.12.12-.56,5.13H79.75l0-.33a6.85,6.85,0,0,0-1.31-4,3.79,3.79,0,0,0-2.73-1.36v7.35a26.46,26.46,0,0,1,5.82,4.74A6.75,6.75,0,0,1,83,87.17,5.71,5.71,0,0,1,80.85,91.76Z"/><path class="cls-1" d="M68.47,54.34c-.39,0-.71.54-.71,1.21s.32,1.21.71,1.21H78.81c.39,0,.72-.54.72-1.21s-.33-1.21-.72-1.21Z"/><path class="cls-1" d="M70.32,52.91c5.14.42,8.35.42,10.92-4.07s4.82-8.67,2.46-8.24S77.28,42,73.64,41,63.47,37.28,63.58,39.1a25.15,25.15,0,0,0,.75,4.17S65.19,52.48,70.32,52.91Z"/><g class="cls-3"><g class="cls-4"><path class="cls-1" d="M17.33,76.13A58,58,0,0,0,107,124.75C30.33,116.82,17.33,76.13,17.33,76.13Z"/></g><g class="cls-4"><path class="cls-1" d="M133.26,76.13s-13,40.69-89.65,48.62a58,58,0,0,0,89.65-48.62Z"/></g></g></g></g></svg>