<svg xmlns="http://www.w3.org/2000/svg" viewBox="0 0 150.25 150.25"><defs><style>.cls-1{fill:#fff;}.cls-2{fill:#c1272d;}.cls-3{fill:none;}.cls-4{opacity:0.4;}.cls-5{opacity:0.5;}</style></defs><g id="Layer_2" data-name="Layer 2"><g id="Layer_1-2" data-name="Layer 1"><path class="cls-1" d="M150.25,75.13A75.13,75.13,0,1,1,75.12,0,75.12,75.12,0,0,1,150.25,75.13Z"/><path class="cls-2" d="M133.13,75.13a58,58,0,1,1-58-58A58,58,0,0,1,133.13,75.13Z"/><path class="cls-3" d="M73.08,46.69c-6.06,0-11,4-11.09,9H84.18C84.07,50.72,79.15,46.69,73.08,46.69Z"/><path class="cls-1" d="M95,78.36H90.77V74.47H54.69v3.89H50.44V74.47H39.83v18A8.49,8.49,0,0,0,48.32,101H97.85a8.49,8.49,0,0,0,8.49-8.49v-18H95Z"/><path class="cls-1" d="M97.85,55.72H86.31l0,.17H84.19c0-.06,0-.11,0-.17H62c0,.06,0,.11,0,.17H59.89l0-.17H48.32a8.49,8.49,0,0,0-8.49,8.5v6.36h66.51V64.22A8.49,8.49,0,0,0,97.85,55.72Z"/><path class="cls-1" d="M73.08,46.69c6.07,0,11,4,11.1,9h2.13a9.63,9.63,0,0,0,.22-1.95c0-6.16-6-11.15-13.45-11.15s-13.44,5-13.44,11.15a9,9,0,0,0,.22,1.95H62C62.1,50.72,67,46.69,73.08,46.69Z"/><path class="cls-1" d="M84.19,55.89h2.09l0-.17H84.18C84.18,55.78,84.19,55.83,84.19,55.89Z"/><path class="cls-1" d="M62,55.89c0-.06,0-.11,0-.17H59.86l0,.17Z"/><g class="cls-4"><g class="cls-5"><path class="cls-1" d="M17.16,76.15a58,58,0,0,0,89.64,48.62C30.16,116.84,17.16,76.15,17.16,76.15Z"/></g><g class="cls-5"><path class="cls-1" d="M133.09,76.15s-13,40.69-89.64,48.62a58,58,0,0,0,89.64-48.62Z"/></g></g></g></g></svg>