<?xml version="1.0" encoding="UTF-8"?><svg id="a" xmlns="http://www.w3.org/2000/svg" viewBox="0 0 1492.54 236.32"><defs><style>.b{fill:#ff435b;}</style></defs><g><path d="M0,127.19V5.38H19.15c11.11,0,19.23,.72,24.38,2.15,7.3,1.93,13.1,5.52,17.41,10.77,4.31,5.25,6.47,11.43,6.47,18.55,0,4.64-.98,8.85-2.94,12.63-1.96,3.78-5.15,7.33-9.56,10.64,7.4,3.48,12.81,7.83,16.23,13.04,3.42,5.22,5.13,11.39,5.13,18.51s-1.77,13.08-5.31,18.72c-3.54,5.63-8.1,9.84-13.68,12.63-5.58,2.79-13.29,4.18-23.13,4.18H0ZM23.19,27.49v25.67h5.07c5.65,0,9.85-1.19,12.59-3.56,2.74-2.37,4.11-5.6,4.11-9.69,0-3.81-1.3-6.83-3.91-9.07s-6.57-3.35-11.88-3.35h-5.99Zm0,46.37v31.22h5.81c9.63,0,16.12-1.21,19.47-3.64,3.35-2.43,5.02-5.96,5.02-10.6,0-5.24-1.97-9.39-5.9-12.42-3.93-3.04-10.46-4.55-19.6-4.55h-4.82Z"/><path d="M95.63,0c3.96,0,7.36,1.44,10.2,4.31,2.83,2.87,4.25,6.35,4.25,10.43s-1.4,7.47-4.21,10.31c-2.81,2.84-6.17,4.27-10.07,4.27s-7.45-1.45-10.28-4.35c-2.83-2.9-4.25-6.42-4.25-10.56s1.4-7.37,4.21-10.18c2.81-2.82,6.19-4.22,10.16-4.22Zm-11.3,37.1h22.61V127.19h-22.61V37.1Z"/><path d="M185.72,2.32h22.61V127.19h-22.61v-9.52c-4.41,4.2-8.84,7.22-13.28,9.07-4.44,1.85-9.25,2.77-14.43,2.77-11.63,0-21.7-4.51-30.19-13.54-8.49-9.03-12.74-20.25-12.74-33.66s4.11-25.31,12.32-34.2c8.22-8.89,18.2-13.33,29.94-13.33,5.4,0,10.47,1.02,15.22,3.06,4.74,2.04,9.13,5.11,13.15,9.19V2.32Zm-23.76,53.33c-6.99,0-12.79,2.47-17.41,7.41-4.62,4.94-6.93,11.28-6.93,19s2.35,14.19,7.06,19.21c4.7,5.02,10.49,7.54,17.37,7.54s12.98-2.47,17.66-7.41c4.68-4.94,7.02-11.41,7.02-19.42s-2.34-14.19-7.02-19.05c-4.68-4.86-10.59-7.29-17.74-7.29Z"/><path d="M307.81,88.69h-72.62c1.05,6.4,3.85,11.5,8.41,15.28,4.55,3.78,10.36,5.67,17.43,5.67,8.45,0,15.7-2.95,21.78-8.86l19.05,8.94c-4.75,6.74-10.43,11.72-17.06,14.95-6.62,3.23-14.49,4.84-23.6,4.84-14.13,0-25.64-4.46-34.53-13.37-8.89-8.91-13.33-20.08-13.33-33.5s4.43-25.16,13.29-34.24c8.86-9.08,19.97-13.62,33.33-13.62,14.19,0,25.73,4.54,34.61,13.62,8.89,9.08,13.33,21.07,13.33,35.98l-.08,4.31Zm-22.61-17.8c-1.49-5.02-4.44-9.11-8.83-12.26-4.4-3.15-9.5-4.72-15.3-4.72-6.3,0-11.83,1.77-16.59,5.3-2.99,2.21-5.75,6.1-8.29,11.68h49.02Z"/></g><g><path d="M422.38,88.9h-72.62c1.05,6.4,3.85,11.5,8.41,15.28,4.55,3.78,10.36,5.67,17.43,5.67,8.45,0,15.7-2.95,21.78-8.86l19.05,8.94c-4.75,6.74-10.43,11.72-17.06,14.95-6.62,3.23-14.49,4.84-23.6,4.84-14.13,0-25.64-4.46-34.53-13.37-8.89-8.91-13.33-20.08-13.33-33.5s4.43-25.16,13.29-34.24c8.86-9.08,19.97-13.62,33.33-13.62,14.19,0,25.73,4.54,34.61,13.62,8.89,9.08,13.33,21.07,13.33,35.98l-.08,4.31Zm-22.61-17.8c-1.49-5.02-4.44-9.11-8.83-12.26-4.4-3.15-9.5-4.72-15.3-4.72-6.3,0-11.83,1.77-16.59,5.3-2.99,2.21-5.75,6.1-8.29,11.68h49.02Z"/><g><polygon points="522.74 34.61 519.65 55.09 495.67 79.07 478.28 61.69 502.26 37.71 522.74 34.61"/><polygon class="b" points="519.56 126.72 499.07 123.62 433.74 58.28 430.64 37.79 451.12 40.89 516.47 106.24 519.56 126.72"/></g><polygon points="471.92 102.83 447.94 126.8 427.46 129.9 430.55 109.41 454.53 85.44 471.92 102.83"/></g></svg>