<svg xmlns="http://www.w3.org/2000/svg" viewBox="0 0 150.25 150.25"><defs><style>.cls-1{fill:#fff;}.cls-2{fill:#009245;}.cls-3{opacity:0.4;}.cls-4{opacity:0.5;}</style></defs><g id="Layer_2" data-name="Layer 2"><g id="Layer_1-2" data-name="Layer 1"><path class="cls-1" d="M22,128.25a75.13,75.13,0,1,1,106.24,0A75.14,75.14,0,0,1,22,128.25Z"/><path class="cls-2" d="M133.13,76.74a58,58,0,1,1-58-58A58,58,0,0,1,133.13,76.74Z"/><g class="cls-3"><g class="cls-4"><path class="cls-1" d="M17.32,77.32A58,58,0,0,0,107,125.93C30.33,118,17.32,77.32,17.32,77.32Z"/></g><g class="cls-4"><path class="cls-1" d="M133.26,77.32s-13,40.69-89.65,48.61a58,58,0,0,0,89.65-48.61Z"/></g></g><path class="cls-1" d="M86.43,102.2c-1.13-1.33-2.17-2.54-3.2-3.78a5.87,5.87,0,0,0-3.74-2c-6.68-1.12-13.35-2.23-20-3.49a5.24,5.24,0,0,1-2.92-1.79c-4.66-5.91-9.21-11.9-13.75-17.9a5.12,5.12,0,0,1,.82-7,5,5,0,0,1,6.9.21c2.37,2.55,4.56,5.28,6.87,8A5.92,5.92,0,0,0,53.67,79a5.84,5.84,0,0,0,5.55,6.83l16.62,1.36c.67.06,1.41.15,1.46-.77s-.68-.88-1.29-.93c-5.44-.46-10.87-.92-16.31-1.35-2.25-.18-3.79-1.24-4.29-3.07a4.13,4.13,0,0,1,4.05-5.25L84.92,76a4.34,4.34,0,0,1,3.37,1.37c3.87,4.43,7.67,8.92,11.58,13.48Z"/><path class="cls-1" d="M62.11,58.16c0,.37-.07.47-.08.58-.07.84.14,1.9-.29,2.48s-1.5.43-2.25.73a1.19,1.19,0,0,0-.63.87c-.21,2.42-.19,2.42-2.65,2.82C54,66,54,66,53.84,63.73a5.14,5.14,0,0,1,1.42-4.13c2.66-2.94,5.15-6,7.73-9a1.25,1.25,0,0,0,.27-1.42A7.36,7.36,0,0,1,66.94,40a1.63,1.63,0,0,0,1-1.59,8.4,8.4,0,0,1,9.71-7.53,8.5,8.5,0,0,1,6.77,10.3,2.86,2.86,0,0,1-.2.48c-1.15-.3-1.34-1-1.28-2.13a6.63,6.63,0,0,0-6.65-7.09,6.54,6.54,0,0,0-6.68,6.45l5,1.37,0,.38-3.47,2.56c.71,2.45,4.85,3.44,8.69,1.82.94,1,.87,1.42-.31,1.91-3.4,1.4-6.67.58-10.05-2.42.1.53.18,1.07.3,1.61a7.05,7.05,0,0,1,.36,1.58,9.57,9.57,0,0,0,2,6.26c-1.21,0-2.16.08-3.08,0a1.21,1.21,0,0,0-1.35.57c-.08.12-.19.21-.28.32C66,56.56,64.73,58.43,62.11,58.16Z"/><path class="cls-1" d="M80.42,62.74,82.1,65c0,.1,0,.2,0,.23-1.81,1.62-1.92,3.22.25,4.71-1,1.1-1.83,2-2.67,3-.41.47-.8.55-1.25.06-.74-.81-1.53-1.59-2.22-2.45a2.07,2.07,0,0,1-.26-1.2c0-4.32,0-8.63,0-13a1.53,1.53,0,0,0-.86-1.6,7.16,7.16,0,0,1-3.54-7.21c1.25.34,2.49.74,3.76,1,1.06.23,2.16.31,3.24.47a2.88,2.88,0,0,0,2.11-5.16,2.83,2.83,0,0,0-3.56.11c-1.38,1.16-2,1.22-3.58.32a6.53,6.53,0,0,1-.54-.38,7.09,7.09,0,0,1,5-3,7.48,7.48,0,0,1,4.91,13.81A1.25,1.25,0,0,0,82.13,56a14.18,14.18,0,0,1,0,3.63A14.15,14.15,0,0,1,80.42,62.74Z"/><path class="cls-1" d="M91.75,111.53c-2-.18-5.32-4-4.94-5.89a3.6,3.6,0,0,1,1.07-1.88c4.49-3.87,9-7.68,13.55-11.48a2.79,2.79,0,0,1,4.25.3c.7.77,1.37,1.56,2,2.37a2.77,2.77,0,0,1-.33,4.1q-6.87,5.86-13.81,11.65A7.52,7.52,0,0,1,91.75,111.53Z"/></g></g></svg>